<?xml version="1.0" encoding="UTF-8" standalone="no"?>
<svg xmlns="http://www.w3.org/2000/svg" version="1.1" width="20" height="20" viewBox="0 0 512 512" xml:space="preserve">
  <path d="m15.116 412.39v84.373h84.373" fill="none" stroke="#ffffff" stroke-linecap="round" stroke-linejoin="round" stroke-width="30" />
  <path d="m496.66 412.24v84.373h-84.373" fill="none" stroke="#ffffff" stroke-linecap="round" stroke-linejoin="round" stroke-width="30" />
  <path d="m14.915 100.07v-84.373h84.373" fill="none" stroke="#ffffff" stroke-linecap="round" stroke-linejoin="round" stroke-width="30" />
  <path d="m496.46 100.22v-84.373h-84.373" fill="none" stroke="#ffffff" stroke-linecap="round" stroke-linejoin="round" stroke-width="30" />
  <path
    d="m81.232 82.633v142.8l29.4 1.4004c1.2444-20.844 3.4221-38.112 6.5332-51.801 3.4222-14 7.7775-25.044 13.066-33.133 5.6-8.4 12.291-14.156 20.068-17.268 7.7778-3.4222 16.955-5.1328 27.533-5.1328h42.467v261.33c0 14.311-13.844 21.467-41.533 21.467v27.066h155.4v-27.066c-28 0-42-7.1557-42-21.467v-261.33h42c10.578 0 19.755 1.7106 27.533 5.1328 7.7778 3.1111 14.313 8.8676 19.602 17.268 5.6 8.0889 9.9553 19.133 13.066 33.133 3.4222 13.689 5.7556 30.956 7 51.801l29.4-1.4004v-142.8h-349.54z"
    fill="#ffffff" />
</svg>
