<?xml version="1.0" encoding="UTF-8" standalone="no"?>
<svg xmlns="http://www.w3.org/2000/svg" version="1.1" width="20" height="20" viewBox="0 0 512 512" xml:space="preserve">
  <path
    d="m190.39 84.949c-6.6975 5.26e-4 -12.661 4.2407-14.861 10.566l-16.951 48.736h-86.783c-16.463 8e-5 -29.807 13.346-29.807 29.809v221.27c-1.31e-4 17.518 14.201 31.719 31.719 31.719h360.38c19.84 1.8e-4 35.922-16.084 35.922-35.924v-215.54c5.2e-4 -17.307-14.029-31.337-31.336-31.338h-86.865l-16.549-48.605c-2.1787-6.3967-8.1858-10.698-14.943-10.697h-129.92zm224.45 102.69c12.237 5.2e-4 22.156 9.8009 22.156 21.889 3.9e-4 12.088-9.9185 21.888-22.156 21.889-12.238 5.4e-4 -22.161-9.7994-22.16-21.889 7e-4 -12.088 9.9224-21.889 22.16-21.889zm-158.85 30.947c37.042-8.9e-4 67.071 30.028 67.07 67.07-1.9e-4 37.042-30.029 67.069-67.07 67.068-37.041-1.8e-4 -67.07-30.028-67.07-67.068-8.9e-4 -37.041 30.029-67.07 67.07-67.07z"
    fill="#ffffff" />
</svg>
