<?xml version="1.0" encoding="UTF-8" standalone="no"?>
<svg
   version="1.1"
   id="Layer_1"
   x="0px"
   y="0px"
   width="2834.938"
   height="2902.1931"
   viewBox="0 0 2834.9379 2902.1931"
   enable-background="new 0 0 5356.929 5014.997"
   xmlns="http://www.w3.org/2000/svg"
   xmlns:svg="http://www.w3.org/2000/svg">
  <defs id="defs43" />
  <g id="g38" transform="translate(-1315.464,-946.912)">
    <g id="g36">
      <path fill="#f3705b" d="m 4035.47,2049.879 c -30.163,-18.321 -64.172,-29.587 -100.802,-29.587 H 1531.117 c -48.45,0 -92.635,18.767 -128.694,49.462 l 1218.765,932.779 4.479,1.378 -4.479,2.706 106.813,81.754 108.353,-85.838 -4.288,-2.729 4.288,-1.257 z" id="path6" />
      <path fill="#f3705b" d="m 1402.42,2073.796 c 0,0 1164.511,-1126.884 1335.501,-1126.884 171.067,0 1297.553,1106.98 1297.553,1106.98 z" id="path8" />
      <g id="g24">
        <rect x="1902.078" y="1754.7271" fill="#ffffff" width="1693.751" height="1976.052" id="rect10" />
        <rect x="2021.764" y="1926.0439" fill="#ffd066" width="1454.308" height="88.404999" id="rect12" />
        <rect x="2021.764" y="2330.9741" fill="#ffd066" width="1454.308" height="88.361" id="rect14" />
        <rect x="2021.764" y="2128.5139" fill="#ffd066" width="1454.308" height="88.391998" id="rect16" />
        <rect x="2021.764" y="2533.4341" fill="#ffd066" width="1454.308" height="88.330002" id="rect18" />
        <rect x="2021.764" y="2722.71" fill="#ffd066" width="1454.308" height="88.404999" id="rect20" />
        <rect x="2021.764" y="2925.208" fill="#ffd066" width="1454.308" height="88.323997" id="rect22" />
      </g>
      <g id="g34">
        <polygon fill="#66bbc9" points="2552.634,2954.069 2552.84,2954.231 2516.121,2926.082 " id="polygon26" />
        <path fill="#f7ba1d" d="m 2552.84,2954.231 -0.206,-0.162 -36.513,-27.987 -341.892,-261.549 -771.806,-590.736 c -52.401,44.762 -86.959,115.382 -86.959,195.616 v 1334.569 c 0,69.935 26.069,132.551 67.376,177.189 l 959.125,-599.928 279.224,-174.621 z" id="path28" />
        <path fill="#f7ba1d" d="m 4035.47,2053.896 -896.785,709.585 v 0 l -189.621,150.074 -96.624,76.366 -16.093,12.608 339.785,216.432 897.269,571.412 c 46.706,-44.951 77.001,-111.282 77.001,-186.395 V 2269.41 c 0,-93.815 -46.913,-174.32 -114.932,-215.514 z" id="path30" />
        <path fill="#e4a33a" d="m 3176.14,3218.964 -339.786,-216.432 16.093,-12.608 c -0.985,0.634 -89.633,55.635 -133.589,55.635 -43.792,0 -165.248,-90.684 -166.014,-91.328 l 68.352,52.386 -279.224,174.62 -959.128,599.93 c 38.526,41.851 90.697,67.938 148.284,67.938 h 2403.549 c 53.16,0 101.081,-22.629 138.735,-58.735 z" id="path32" />
      </g>
    </g>
  </g>
</svg>
